HIERARCHY
ROOT Hips
{
	OFFSET 0.000000 0.000000 0.000000
	CHANNELS 6 Xposition Yposition Zposition Zrotation Yrotation Xrotation 
	JOINT LHipJoint
	{
		OFFSET 0.000000 0.000000 0.000000
		CHANNELS 3 Zrotation Yrotation Xrotation
		JOINT LeftUpLeg
		{
			OFFSET 8.178360 -10.767780 5.035740
			CHANNELS 3 Zrotation Yrotation Xrotation
			JOINT LeftLeg
			{
				OFFSET 14.688660 -40.356780 0.000000
				CHANNELS 3 Zrotation Yrotation Xrotation
				JOINT LeftFoot
				{
					OFFSET 15.373200 -42.237540 0.000000
					CHANNELS 3 Zrotation Yrotation Xrotation
					JOINT LeftToeBase
					{
						OFFSET 0.945840 -2.598660 13.935300
						CHANNELS 3 Zrotation Yrotation Xrotation
						End Site
						{
							OFFSET 0.000000 0.000000 0.000000
						}
					}
				}
			}
		}
	}
	JOINT RHipJoint
	{
		OFFSET 0.000000 0.000000 0.000000
		CHANNELS 3 Zrotation Yrotation Xrotation
		JOINT RightUpLeg
		{
			OFFSET -7.833120 -10.767780 5.035740
			CHANNELS 3 Zrotation Yrotation Xrotation
			JOINT RightLeg
			{
				OFFSET -15.255180 -41.913300 0.000000
				CHANNELS 3 Zrotation Yrotation Xrotation
				JOINT RightFoot
				{
					OFFSET -15.409560 -42.337380 0.000000
					CHANNELS 3 Zrotation Yrotation Xrotation
					JOINT RightToeBase
					{
						OFFSET -0.988380 -2.715540 14.178900
						CHANNELS 3 Zrotation Yrotation Xrotation
						End Site
						{
							OFFSET 0.000000 0.000000 0.000000
						}
					}
				}
			}
		}
	}
	JOINT LowerBack
	{
		OFFSET 0.000000 0.000000 0.000000
		CHANNELS 3 Zrotation Yrotation Xrotation
		JOINT Spine
		{
			OFFSET 0.169620 12.213540 -1.160280
			CHANNELS 3 Zrotation Yrotation Xrotation
			JOINT Spine1
			{
				OFFSET 0.340320 12.293100 -0.256500
				CHANNELS 3 Zrotation Yrotation Xrotation
				JOINT Neck
				{
					OFFSET 0.000000 0.000000 0.000000
					CHANNELS 3 Zrotation Yrotation Xrotation
					JOINT Neck1
					{
						OFFSET -0.325020 10.477440 1.032120
						CHANNELS 3 Zrotation Yrotation Xrotation
						JOINT Head
						{
							OFFSET 0.624420 10.568160 -0.743820
							CHANNELS 3 Zrotation Yrotation Xrotation
							End Site
							{
								OFFSET 0.000000 0.000000 0.000000
							}
						}
					}
				}
				JOINT LeftShoulder
				{
					OFFSET 0.000000 0.000000 0.000000
					CHANNELS 3 Zrotation Yrotation Xrotation
					JOINT LeftArm
					{
						OFFSET 20.174460 7.205340 -1.867260
						CHANNELS 3 Zrotation Yrotation Xrotation
						JOINT LeftForeArm
						{
							OFFSET 29.898000 -0.000000 -0.000000
							CHANNELS 3 Zrotation Yrotation Xrotation
							JOINT LeftHand
							{
								OFFSET 20.901360 -0.000000 -0.000000
								CHANNELS 3 Zrotation Yrotation Xrotation
								JOINT LeftFingerBase
								{
									OFFSET 0.000000 0.000000 0.000000
									CHANNELS 3 Zrotation Yrotation Xrotation
									JOINT LeftHandIndex1
									{
										OFFSET 4.291560 -0.000000 -0.000000
										CHANNELS 3 Zrotation Yrotation Xrotation
										End Site
										{
											OFFSET 0.000000 0.000000 0.000000
										}
									}
								}
								JOINT LThumb
								{
									OFFSET 0.000000 0.000000 0.000000
									CHANNELS 3 Zrotation Yrotation Xrotation
									End Site
									{
										OFFSET 0.000000 0.000000 0.000000
									}
								}
							}
						}
					}
				}
				JOINT RightShoulder
				{
					OFFSET 0.000000 0.000000 0.000000
					CHANNELS 3 Zrotation Yrotation Xrotation
					JOINT RightArm
					{
						OFFSET -18.819600 8.244300 -2.427900
						CHANNELS 3 Zrotation Yrotation Xrotation
						JOINT RightForeArm
						{
							OFFSET -31.451400 -0.000000 -0.000000
							CHANNELS 3 Zrotation Yrotation Xrotation
							JOINT RightHand
							{
								OFFSET -20.665020 -0.000000 -0.000000
								CHANNELS 3 Zrotation Yrotation Xrotation
								JOINT RightFingerBase
								{
									OFFSET 0.000000 0.000000 0.000000
									CHANNELS 3 Zrotation Yrotation Xrotation
									JOINT RightHandIndex1
									{
										OFFSET -3.735180 -0.000000 -0.000000
										CHANNELS 3 Zrotation Yrotation Xrotation
										End Site
										{
											OFFSET 0.000000 0.000000 0.000000
										}
									}
								}
								JOINT RThumb
								{
									OFFSET 0.000000 0.000000 0.000000
									CHANNELS 3 Zrotation Yrotation Xrotation
									End Site
									{
										OFFSET 0.000000 0.000000 0.000000
									}
								}
							}
						}
					}
				}
			}
		}
	}
}
MOTION
Frames:	9
Frame Time:	0.0333333
26.861730 104.238414 31.295118 19.435950 -46.120619 -5.296085 -1.302266 0.804240 1.975658 -13.818985 6.309551 -14.941096 16.041295 18.932864 75.300702 -2.431693 13.744558 19.006826 0.237800 -3.138300 -8.663900 1.892222 -0.210623 0.557728 29.032896 2.789099 -23.846633 -1.705797 -11.328825 32.868659 0.409584 -4.537096 8.590081 -2.665000 -10.131900 29.404800 -7.241128 -0.835579 10.978427 0.341616 -2.184495 -2.550065 2.825144 -1.024618 -3.642235 -9.120904 -1.280711 -9.960818 3.717456 -0.258143 8.343522 3.590300 -0.603800 7.451600 -2.284841 2.679068 -2.616723 -80.041701 15.649746 47.198040 104.010114 -64.261597 -78.843144 -0.134089 -1.924337 -31.942712 16.105869 6.400099 2.466400 -7.125000 0.000000 0.000000 -8.237000 38.204500 1.389600 -1.024182 -2.057669 -1.497120 86.969220 -22.982833 30.580796 -124.729178 56.626571 -93.703928 1.664845 -1.257977 -6.741815 -18.045723 25.575527 -9.109600 7.125000 0.000000 0.000000 6.275200 -1.874600 6.103700 
21.418992 102.287928 42.248184 13.621371 -46.915637 -0.535552 0.159203 0.360457 0.568905 -5.295551 2.892594 -26.682096 18.470267 20.176084 82.605321 -1.971817 10.067324 14.131228 0.497000 -4.519600 -12.543200 1.522932 -0.599248 1.189663 32.232577 7.034369 -16.745370 -2.636026 -11.858805 35.935430 1.324388 -6.450936 -1.454480 -1.962100 -8.786600 25.130200 -4.644128 -0.543552 11.651664 0.820197 -1.465688 -2.672989 3.919971 -0.550148 -4.403393 -8.931549 -1.326220 -10.195776 3.931895 -0.325801 7.968896 3.553300 -0.586900 7.431600 -1.998608 2.725336 -2.819753 -82.206599 21.875438 43.995375 101.478307 -64.649909 -77.129343 -0.384747 -1.952263 -29.139059 18.100650 4.862350 2.249500 -7.125000 0.000000 0.000000 -6.205900 36.704700 1.272200 -0.765972 -1.880562 -1.482934 86.280469 -17.049292 33.557827 -124.097136 56.695840 -93.395696 1.529552 -1.337427 -1.789419 -17.158545 25.170858 -8.527900 7.125000 0.000000 0.000000 6.773600 -2.494700 6.518700 
14.967534 102.232458 53.828670 12.643048 -46.379218 0.389041 0.745985 -0.257856 -0.615276 -3.213101 -1.029418 -35.396115 17.372602 20.781733 79.035998 -2.841277 11.656622 9.519111 0.737500 -5.486200 -15.300500 1.595607 -0.908497 2.057795 30.926976 5.256937 -9.598449 -2.515994 -11.250843 34.952237 1.720582 -7.529945 -3.613080 -0.390200 -4.011300 11.108400 -4.046479 0.546476 11.267356 0.717401 0.004515 -2.549874 3.270669 0.271574 -3.975231 -8.651306 -2.851775 -10.064196 4.135564 -2.443914 7.192565 3.452600 -1.505600 7.171500 -1.820962 2.926413 -2.915186 -80.872455 26.074462 45.401823 104.130482 -64.725104 -78.689813 -0.414070 -1.866354 -28.380090 17.618396 4.702666 2.105000 -7.125000 0.000000 0.000000 -6.612600 36.428500 1.401300 -1.030191 -1.792268 -1.258324 87.842961 -13.720644 35.444637 -131.386480 53.349754 -98.364563 1.444555 -1.603059 -0.846515 -17.581644 26.064125 -9.043700 7.125000 0.000000 0.000000 6.672700 -1.270200 6.568100 
7.490784 103.697076 66.059532 8.167949 -46.890718 3.976321 0.910832 -0.600215 -1.674204 -0.935128 -2.177055 -40.152008 12.923176 20.146569 65.603296 -3.409544 13.190438 9.559077 0.335100 -3.720000 -10.290300 1.813006 -1.377957 3.117484 31.004081 3.967276 -0.257207 -1.352415 -9.238788 29.305738 1.043734 -5.518075 4.398132 -0.089200 -1.926000 5.301200 0.148626 1.991619 9.397971 0.666299 2.394704 -2.469001 1.201322 1.569620 -2.992737 -8.245638 -3.768977 -9.966742 3.931512 -3.790831 7.926459 3.309600 -2.191600 7.611300 -1.610080 3.177945 -3.006224 -78.044471 28.568549 48.597739 109.212706 -64.337349 -81.827304 -0.322285 -1.728995 -29.848712 15.691248 4.723293 1.834800 -7.125000 0.000000 0.000000 -8.303400 36.218100 1.808200 -1.325518 -1.815223 -1.109233 87.441631 -13.179490 38.720454 -139.666338 48.345226 -103.863935 1.612285 -1.647855 -6.728530 -18.489334 25.679280 -9.444900 7.125000 0.000000 0.000000 6.120000 -1.287600 6.015600 
-0.882468 105.956808 78.708036 6.960917 -46.566999 5.258671 -0.033028 -1.181430 -2.509045 -2.173070 -2.607227 -40.385940 6.280760 16.806395 45.853397 -2.767992 12.906913 15.926983 0.224300 -3.048600 -8.414000 2.384358 -1.840409 4.339623 27.307205 3.112187 6.418986 -0.164271 -7.224189 23.514555 -0.913812 -3.413134 24.708919 -0.000300 -0.107100 0.294300 1.669077 2.944681 7.065236 0.468726 3.691834 -2.600625 -0.029484 2.391006 -2.799645 -8.180120 -4.542733 -8.360841 3.997013 -4.992475 8.538303 3.366900 -2.810200 7.607400 -1.554679 3.474326 -3.143381 -76.091550 31.604629 49.140138 113.227252 -63.833259 -84.394339 0.155370 -1.731263 -27.814820 9.673971 9.671302 2.044700 -7.125000 0.000000 0.000000 -14.811900 40.974400 1.507800 -1.560823 -1.786301 -0.976431 85.663457 -13.963458 43.150701 -142.997115 45.939429 -105.912198 1.553445 -1.872912 -6.717736 -18.095485 27.316379 -9.766400 7.125000 0.000000 0.000000 6.610000 0.524800 6.714900 
-9.136482 106.881996 91.248144 7.133936 -46.838456 4.792716 -1.848457 -1.903627 -2.564804 -3.469590 -2.332731 -36.729066 0.349555 11.161456 27.513987 1.244509 5.593670 25.909461 2.396900 -9.647900 -27.844000 3.080977 -2.077377 4.979067 24.017682 7.336192 10.016165 -0.785678 -8.362871 25.605621 -4.337163 -4.892894 46.478259 -0.795300 -5.692400 15.894400 1.856258 3.569726 5.796543 0.196590 4.433440 -2.710617 -0.864348 2.889763 -2.721212 -8.313930 -4.786586 -8.082489 4.463595 -5.389304 9.641091 3.696800 -3.035900 8.268900 -1.607330 3.676958 -3.317317 -75.300885 34.137480 47.322392 117.584946 -63.099418 -87.093273 -0.481573 -1.405880 -25.006484 14.812447 3.055447 1.174100 -7.125000 0.000000 0.000000 -8.864900 34.179100 2.377600 -1.661013 -1.710735 -0.982484 82.870762 -14.657559 47.257922 -142.758270 46.174264 -105.670553 1.274250 -1.984933 -2.406000 -16.860598 27.536998 -9.107100 7.125000 0.000000 0.000000 7.432300 0.517000 7.562800 
-17.055744 107.983170 102.486228 4.164215 -46.632115 5.108813 -2.720094 -2.072039 -2.242311 -2.747196 -3.708620 -34.142155 -0.858471 8.696349 20.691239 0.952380 8.682913 29.599082 1.193100 -6.931200 -19.511600 2.080998 -1.555578 4.099883 27.425810 9.289095 9.032928 -4.538750 -12.452516 40.041706 -1.727016 -7.002936 36.186163 -0.263100 -3.299600 9.114000 3.313517 3.406915 8.493129 0.382114 4.443508 -2.764708 -0.532913 2.819911 -3.778554 -8.414633 -4.830810 -8.625451 4.374548 -5.356173 9.435324 3.592900 -3.020400 8.458000 -1.510354 3.432299 -3.303205 -76.802270 33.970787 44.945898 121.815563 -61.670213 -89.972400 -0.483630 -1.295989 -24.646340 14.254986 3.002652 1.086100 -7.125000 0.000000 0.000000 -9.341300 34.001300 2.549000 -1.453608 -1.541855 -1.072477 80.668528 -14.504013 49.863974 -140.904036 47.474541 -104.497838 1.212235 -1.825870 -3.137268 -15.520186 26.682690 -8.105400 7.125000 0.000000 0.000000 8.163000 -0.720200 8.143100 
-25.329528 107.884974 115.037814 4.101916 -48.360399 2.129711 -3.399848 -1.447111 -0.802053 -5.895114 -3.318992 -29.895515 -0.390804 9.553325 24.848396 1.628386 5.019706 28.268602 0.256000 -3.255700 -8.991400 0.827260 -1.337908 2.870749 26.283552 8.739774 4.692182 -10.799232 -16.489754 58.517865 1.239677 -15.229243 28.498244 -0.105000 -2.089300 5.752500 3.528130 3.266179 9.234277 0.425092 4.323638 -2.194410 -0.251544 2.665952 -1.756336 -8.269694 -4.259415 -9.638800 4.185722 -4.544032 9.108896 3.509700 -2.584300 8.168300 -1.472559 3.517911 -2.961540 -78.666091 30.237251 44.105832 126.035695 -60.006452 -92.787517 -0.506883 -1.393768 -27.882816 15.189546 5.160647 1.795700 -7.125000 0.000000 0.000000 -8.769200 36.272300 1.899800 -1.230996 -1.898648 -1.089888 80.387541 -15.331627 49.951679 -136.495343 50.564070 -101.477032 1.261468 -1.698905 -4.811049 -15.697177 26.852810 -8.216500 7.125000 0.000000 0.000000 8.064200 -0.615700 8.057500 
-32.669832 106.489860 125.202144 7.783944 -45.433419 -2.057455 -3.082095 -0.892996 0.250500 -11.631460 -3.547012 -27.821963 1.403765 12.040515 34.169885 2.288176 -1.515596 17.886042 0.141000 -2.420100 -6.668300 -0.179793 -1.034844 1.912179 21.007641 5.057295 -7.808580 -17.005906 -18.752773 77.548995 3.336022 -18.144972 18.767756 -0.549700 -4.749900 13.196500 -0.757443 1.645475 12.383598 0.485779 1.828906 -2.272718 1.814269 1.287974 -3.349626 -8.028845 -3.587134 -9.682214 4.208564 -3.659979 8.576090 3.310500 -2.115400 7.906700 -1.597326 3.105428 -2.672641 -79.125730 24.004978 44.453780 130.110103 -57.749245 -95.746256 -0.499531 -1.261158 -26.598166 14.338787 5.072575 1.637700 -7.125000 0.000000 0.000000 -9.523400 36.036600 2.122300 -0.911104 -1.724156 -1.257669 82.840761 -16.395090 45.741500 -126.209323 55.735273 -94.552366 1.420815 -1.499344 -2.731079 -16.533923 26.806391 -8.673100 7.125000 0.000000 0.000000 7.406800 -0.762900 7.369600 
